#!OML:ASF E:\emotionWalksFemale\Project 1\Capture day 1\Session 1\Female1.ASF
:FULLY-SPECIFIED
:DEGREES
366
root 6.39494 14.049 20.8645 190.266 72.0664 -535.101
lowerback 19.021 1.74701 -1.27596
upperback -1.7802 2.19702 1.13971
thorax -12.827 1.17058 1.34426
lowerneck -7.60559 -8.94657 -10.6774
upperneck -10.9476 -10.341 9.29368
head -0.973824 -4.71925 4.28679
rclavicle -3.87879e-014 -7.95139e-015
rhumerus 12.7702 -2.79076 -41.7532
rradius 43.9627
rwrist 7.81374
rhand 0.480528 -64.7861
rfingers 7.12502
rthumb 26.0506 453.02
lclavicle -3.87879e-014 -7.95139e-015
lhumerus -12.7268 43.0111 23.1535
lradius 28.5927
lwrist -26.3726
lhand 19.2016 -27.3185
lfingers 7.12502
lthumb 43.7906 -3.35797
rfemur -41.9694 4.66322 25.6589
rtibia 57.8016
rfoot -19.1669 -31.0669
rtoes 10.4175
lfemur -45.2007 -12.3582 -17.6383
ltibia 57.8793
lfoot -23.6948 12.1004
ltoes -43.8744
367
root 6.3724 14.1671 20.864 190.669 72.0748 -534.758
lowerback 18.7548 1.74035 -1.25032
upperback -1.82142 2.20271 1.19498
thorax -12.7207 1.17404 1.39511
lowerneck -7.78031 -8.9611 -10.6321
upperneck -10.6072 -10.3783 9.10524
head -0.858312 -4.74107 4.20422
rclavicle 2.87989e-014 -2.48481e-014
rhumerus 12.8999 -0.641308 -39.1348
rradius 46.5388
rwrist 5.76923
rhand -0.146647 -64.9445
rfingers 7.12502
rthumb 25.4499 453.265
lclavicle 2.87989e-014 -2.48481e-014
lhumerus -13.1621 40.7289 21.8522
lradius 29.2853
lwrist -25.0412
lhand 19.224 -26.743
lfingers 7.12502
lthumb 43.8115 -2.79015
rfemur -40.8491 4.69758 25.6679
rtibia 55.4842
rfoot -18.6038 -30.7635
rtoes 7.96481
lfemur -44.1954 -12.3102 -17.3896
ltibia 55.9487
lfoot -23.9472 11.0289
ltoes -38.7142
368
root 6.35509 14.2947 20.8614 191.261 72.1463 -534.231
lowerback 18.4408 1.66705 -1.12134
upperback -1.87874 2.13772 1.20896
thorax -12.5959 1.13543 1.3626
lowerneck -7.90922 -8.87518 -10.7013
upperneck -10.2327 -10.271 9.15912
head -0.730551 -4.69336 4.21928
rclavicle 1.2275e-014 2.22639e-014
rhumerus 13.2744 1.42265 -36.9192
rradius 48.8495
rwrist 4.68026
rhand 0.646838 -64.8286
rfingers 7.12502
rthumb 26.2098 453.039
lclavicle 1.2275e-014 2.22639e-014
lhumerus -13.7882 38.3148 20.3028
lradius 29.922
lwrist -24.0179
lhand 19.4515 -25.9435
lfingers 7.12502
lthumb 44.0237 -2.06951
rfemur -39.5898 4.80933 25.7134
rtibia 52.9322
rfoot -18.3061 -30.4771
rtoes 5.98318
lfemur -43.0675 -12.1328 -17.2058
ltibia 53.7652
lfoot -23.8682 10.5604
ltoes -37.5417
369
root 6.34115 14.4406 20.8593 191.675 72.2873 -533.952
lowerback 18.0273 1.46925 -1.15584
upperback -1.98917 1.87873 1.29521
thorax -12.4752 1.02153 1.5601
lowerneck -7.74161 -8.6864 -11.2678
upperneck -9.95851 -10.0119 9.58154
head -0.644393 -4.56625 4.4438
rclavicle -2.16178e-015 -9.93923e-016
rhumerus 14.0771 4.28132 -34.6963
rradius 51.0178
rwrist 3.48193
rhand 1.05782 -64.5451
rfingers 7.12502
rthumb 26.6032 452.696
lclavicle -2.16178e-015 -9.93923e-016
lhumerus -15.2876 34.4821 18.3132
lradius 30.6471
lwrist -22.3934
lhand 19.4939 -25.0078
lfingers 7.12502
lthumb 44.0634 -1.14857
rfemur -38.2201 5.09229 25.6062
rtibia 50.1541
rfoot -18.0604 -30.1658
rtoes 4.46421
lfemur -41.8586 -11.9369 -17.1023
ltibia 51.3398
lfoot -23.6931 9.97671
ltoes -37.9501
370
root 6.33238 14.5939 20.8606 192.066 72.4531 -533.737
lowerback 17.554 1.39611 -1.23403
upperback -2.08515 1.75948 1.24987
thorax -12.3037 0.968641 1.5953
lowerneck -7.74427 -8.64703 -11.2828
upperneck -9.67265 -9.97967 9.68762
head -0.554856 -4.56016 4.47077
rclavicle -1.9456e-014 6.65929e-015
rhumerus 14.1863 6.75196 -32.3778
rradius 53.4507
rwrist 2.81636
rhand 3.0392 -63.9437
rfingers 7.12502
rthumb 28.498 451.793
lclavicle -1.9456e-014 6.65929e-015
lhumerus -16.3126 29.8549 16.8758
lradius 31.4815
lwrist -21.0493
lhand 19.8092 -24.2742
lfingers 7.12502
lthumb 44.3573 -0.525854
rfemur -36.7647 5.32954 25.5096
rtibia 47.1985
rfoot -17.5959 -29.9132
rtoes 2.4757
lfemur -40.5598 -11.7203 -17.0147
ltibia 48.7315
lfoot -23.2965 9.76023
ltoes -40.4014
371
root 6.329 14.7377 20.8635 192.647 72.6137 -533.318
lowerback 17.0668 1.4855 -1.16202
upperback -2.15196 1.87302 1.06536
thorax -12.0892 1.0074 1.32666
lowerneck -7.92773 -8.76867 -10.8675
upperneck -9.33973 -10.1774 9.59715
head -0.434761 -4.67333 4.35198
rclavicle 2.77864e-014 -1.33683e-014
rhumerus 13.5157 8.78896 -30.1586
rradius 55.987
rwrist 2.14131
rhand 4.63337 -63.0545
rfingers 7.12502
rthumb 30.0202 450.638
lclavicle 2.77864e-014 -1.33683e-014
lhumerus -16.4535 25.2831 16.0639
lradius 31.9639
lwrist -20.6451
lhand 20.3283 -23.9899
lfingers 7.12502
lthumb 44.8408 -0.4279
rfemur -35.227 5.54302 25.5455
rtibia 44.1215
rfoot -17.1986 -30.0874
rtoes 0.172779
lfemur -39.2451 -11.7015 -16.7838
ltibia 46.054
lfoot -23.1128 9.53538
ltoes -41.7611
372
root 6.33059 14.8786 20.8634 192.836 72.8826 -533.103
lowerback 16.709 1.54026 -1.13572
upperback -2.22281 1.93859 0.945662
thorax -11.9565 1.03074 1.16834
lowerneck -8.03059 -8.84298 -10.9856
upperneck -8.75599 -10.3004 9.7874
head -0.216299 -4.74447 4.39835
rclavicle -2.4699e-014 1.00635e-015
rhumerus 13.1372 11.1035 -28.1883
rradius 58.1382
rwrist 1.36258
rhand 5.02363 -62.4355
rfingers 7.12502
rthumb 30.3925 630.049
lclavicle -2.4699e-014 1.00635e-015
lhumerus -16.85 21.3547 15.3047
lradius 31.9329
lwrist -21.4509
lhand 20.3835 -23.9466
lfingers 7.12502
lthumb 44.8921 -0.404709
rfemur -33.359 6.45601 25.3696
rtibia 40.9858
rfoot -17.2934 -30.7617
rtoes 1.72548
lfemur -37.6647 -11.5661 -16.7097
ltibia 43.4245
lfoot -23.3002 9.01575
ltoes -41.2819
373
root 6.33623 15.0204 20.86 192.706 73.2536 -533.078
lowerback 16.4608 1.52076 -1.19193
upperback -2.33526 1.89131 0.857282
thorax -11.9355 1.00872 1.11965
lowerneck -8.0946 -8.78841 -11.2216
upperneck -7.97914 -10.2659 9.98092
head 0.0438567 -4.73987 4.469
rclavicle 5.85017e-015 1.99779e-014
rhumerus 12.7935 13.5514 -26.5746
rradius 60.237
rwrist 0.3552
rhand 5.58141 -62.0252
rfingers 7.12502
rthumb 30.9244 630.559
lclavicle 5.85017e-015 1.99779e-014
lhumerus -17.8667 17.5427 14.4318
lradius 31.8415
lwrist -22.6083
lhand 20.3621 -24.103
lfingers 7.12502
lthumb 44.8723 -0.553302
rfemur -31.3547 6.1808 25.3772
rtibia 37.8947
rfoot -17.3803 -30.2356
rtoes 4.08147
lfemur -35.8771 -11.1566 -16.8392
ltibia 40.9911
lfoot -23.6126 8.60574
ltoes -41.4547
374
root 6.34281 15.1469 20.854 192.641 73.5857 -532.987
lowerback 16.281 1.49749 -1.22497
upperback -2.44794 1.83963 0.73479
thorax -11.9526 0.981638 1.01988
lowerneck -8.46336 -8.67071 -11.055
upperneck -7.04154 -10.1567 9.84495
head 0.349677 -4.69845 4.36887
rclavicle -9.5603e-015 -1.26725e-014
rhumerus 12.0568 15.7086 -25.3085
rradius 62.4668
rwrist -1.01084
rhand 5.95485 -61.8301
rfingers 7.12502
rthumb 31.2803 630.822
lclavicle -9.5603e-015 -1.26725e-014
lhumerus -18.8844 13.6595 13.6936
lradius 31.6892
lwrist -23.5469
lhand 20.5901 -24.6567
lfingers 7.12502
lthumb 45.0844 -1.19043
rfemur -29.4235 6.42074 25.274
rtibia 35.028
rfoot -17.4059 -30.4185
rtoes 4.1542
lfemur -34.1708 -10.9233 -16.9373
ltibia 38.8839
lfoot -23.8393 8.71047
ltoes -43.0275
375
root 6.35259 15.2546 20.8453 192.429 73.847 -532.98
lowerback 16.1354 1.51495 -1.22586
upperback -2.52079 1.84601 0.585983
thorax -11.9442 0.978274 0.857282
lowerneck -8.90287 -8.67138 -10.9476
upperneck -6.01256 -10.199 9.77707
head 0.716113 -4.7284 4.2849
rclavicle 3.52222e-014 -1.54058e-014
rhumerus 10.9668 17.5239 -24.3737
rradius 64.5458
rwrist -2.50419
rhand 5.68147 -61.9261
rfingers 7.12502
rthumb 31.0198 630.676
lclavicle 3.52222e-014 -1.54058e-014
lhumerus -19.6627 9.80378 13.3005
lradius 31.3909
lwrist -24.04
lhand 20.9538 -25.2064
lfingers 7.12502
lthumb 45.4226 -1.87528
rfemur -27.4388 7.04885 25.0784
rtibia 32.3316
rfoot -17.2211 -31.0678
rtoes 3.54917
lfemur -32.5802 -10.8259 -17.1952
ltibia 37.4213
lfoot -23.654 10.4025
ltoes -47.292
376
root 6.36382 15.3385 20.8371 191.976 74.0676 -533.317
lowerback 15.7915 1.47369 -1.1982
upperback -2.62186 1.77468 0.373465
thorax -11.8454 0.933913 0.633024
lowerneck -9.15365 -8.63474 -11.0904
upperneck -5.03617 -10.1893 10.1231
head 1.07273 -4.72807 4.3762
rclavicle 2.5196e-014 -4.57205e-015
rhumerus 9.68878 19.1272 -23.9269
rradius 66.4832
rwrist -3.72615
rhand 5.75805 -61.9453
rfingers 7.12502
rthumb 31.0927 630.671
lclavicle 2.5196e-014 -4.57205e-015
lhumerus -20.6297 6.68095 12.9814
lradius 31.0833
lwrist -24.5377
lhand 21.5452 -25.3007
lfingers 7.12502
lthumb 45.9717 -2.19445
rfemur -25.7098 7.68236 24.8001
rtibia 30.0536
rfoot -16.8526 -31.59
rtoes 3.90547
lfemur -31.3265 -10.2091 -17.8849
ltibia 36.6839
lfoot -20.1464 14.6544
ltoes -56.5716
377
root 6.36017 15.4472 20.8326 192.352 74.1493 -533.048
lowerback 15.2593 1.3401 -0.969303
upperback -2.8354 1.62547 0.190017
thorax -11.7563 0.84116 0.349194
lowerneck -9.00998 -8.5367 -11.242
upperneck -4.39263 -10.122 10.5787
head 1.27155 -4.70353 4.53034
rclavicle 1.4561e-014 -4.77083e-015
rhumerus 8.17628 20.622 -23.8605
rradius 68.4864
rwrist -4.56915
rhand 6.42661 -61.8323
rfingers 7.12502
rthumb 31.7297 630.908
lclavicle 1.4561e-014 -4.77083e-015
lhumerus -21.8575 4.36184 12.6376
lradius 30.8579
lwrist -24.917
lhand 21.9058 -24.9021
lfingers 7.12502
lthumb 46.3062 -1.93617
rfemur -24.6183 8.04989 24.7895
rtibia 28.567
rfoot -17.4045 -32.0785
rtoes 5.00929
lfemur -30.445 -11.1058 -17.2023
ltibia 36.7728
lfoot -23.1363 8.98872
ltoes -41.397
378
root 6.38435 15.537 20.7968 192.44 74.4331 -532.493
lowerback 14.7116 1.34005 -0.357072
upperback -2.778 1.72266 -0.0289963
thorax -11.3425 0.837784 -0.246821
lowerneck -8.92167 -8.5049 -11.2185
upperneck -3.6852 -10.1578 10.706
head 1.47811 -4.73338 4.54876
rclavicle -3.48867e-014 -2.78299e-015
rhumerus 6.14135 21.9552 -23.7981
rradius 70.5687
rwrist -5.05896
rhand 6.978 -61.8894
rfingers 7.12502
rthumb 32.2548 630.956
lclavicle -3.48867e-014 -2.78299e-015
lhumerus -23.0073 2.1959 12.5739
lradius 30.8713
lwrist -24.6564
lhand 22.0205 -24.3548
lfingers 7.12502
lthumb 46.4125 -1.43406
rfemur -23.0417 7.88546 24.9168
rtibia 27.8333
rfoot -19.0717 -31.6715
rtoes 6.60588
lfemur -29.0219 -11.3468 -17.4549
ltibia 37.6087
lfoot -22.5649 9.64358
ltoes -41.8345
